<svg width="60" height="60" viewBox="0 0 60 60" fill="none" xmlns="http://www.w3.org/2000/svg">
<path d="M59.9995 18.3868C59.9995 16.7862 58.697 15.4836 57.0963 15.4836C56.7634 15.4836 56.448 15.5514 56.1499 15.6549L51.8135 10.2347C52.0903 9.79049 52.2577 9.27082 52.2577 8.70954C52.2577 7.10892 50.9552 5.80636 49.3545 5.80636C48.5407 5.80636 47.8071 6.14506 47.2797 6.68505L39.6511 3.16447C39.6589 3.07737 39.6773 2.99318 39.6773 2.90318C39.6773 1.30256 38.3747 0 36.7741 0C35.5141 0 34.4496 0.811922 34.049 1.93545H23.0479C22.6472 0.811922 21.5827 0 20.3227 0C18.7221 0 17.4196 1.30256 17.4196 2.90318C17.4196 3.02318 17.4409 3.13834 17.4554 3.25543L12.6554 5.65539C12.1329 5.15217 11.4264 4.83863 10.6455 4.83863C9.04486 4.83863 7.7423 6.14119 7.7423 7.74181C7.7423 8.30309 7.90972 8.82276 8.18649 9.26695L3.8501 14.6872C3.55204 14.5836 3.23657 14.5159 2.90367 14.5159C1.30305 14.5159 0.000488281 15.8185 0.000488281 17.4191C0.000488281 18.6791 0.812411 19.7436 1.93594 20.1442V26.3076C0.812411 26.7073 0.000488281 27.7718 0.000488281 29.0318C0.000488281 30.6324 1.30305 31.935 2.90367 31.935C3.97881 31.935 4.90783 31.3408 5.41008 30.4708L10.6929 31.4308C10.9164 32.8108 12.1067 33.8704 13.5487 33.8704C13.5874 33.8704 13.6241 33.8607 13.6628 33.8588L15.5093 38.4758C14.9054 39.0081 14.5164 39.7784 14.5164 40.6445C14.5164 42.2451 15.8189 43.5477 17.4196 43.5477C18.3931 43.5477 19.2515 43.0619 19.7779 42.3254L28.0829 44.6983C28.1575 45.877 28.9316 46.8592 30 47.2405V54.3717C28.8765 54.7723 28.0646 55.8368 28.0646 57.0968C28.0646 58.6974 29.3671 60 30.9677 60C32.5684 60 33.8709 58.6974 33.8709 57.0968C33.8709 55.8368 33.059 54.7723 31.9355 54.3717V47.2405C33.059 46.8399 33.8709 45.7754 33.8709 44.5154C33.8709 43.5883 33.4258 42.7706 32.7474 42.2383L33.9028 38.771L42.5863 41.6655C42.6095 42.9012 43.4088 43.9415 44.5159 44.3364V54.3707C43.3924 54.7714 42.5804 55.8359 42.5804 57.0959C42.5804 58.6965 43.883 59.999 45.4836 59.999C47.0842 59.999 48.3868 58.6965 48.3868 57.0959C48.3868 55.8359 47.5749 54.7714 46.4514 54.3707V44.3374C47.5749 43.9367 48.3868 42.8722 48.3868 41.6122C48.3868 41.259 48.3142 40.9242 48.1981 40.6106L55.6235 34.423C56.056 34.6804 56.5564 34.8382 57.0963 34.8382C58.697 34.8382 59.9995 33.5356 59.9995 31.935C59.9995 30.675 59.1876 29.6105 58.0641 29.2099V21.111C59.1876 20.7113 59.9995 19.6468 59.9995 18.3868ZM49.3545 7.74181C49.8877 7.74181 50.3223 8.17535 50.3223 8.70954C50.3223 9.24372 49.8877 9.67726 49.3545 9.67726C48.8213 9.67726 48.3868 9.24372 48.3868 8.70954C48.3868 8.17535 48.8213 7.74181 49.3545 7.74181ZM47.9784 11.2498C48.3897 11.4743 48.8542 11.6127 49.3545 11.6127C49.6874 11.6127 50.0019 11.545 50.3 11.4414L54.6364 16.8626C54.3606 17.3068 54.1932 17.8255 54.1932 18.3868C54.1932 18.5426 54.2154 18.6926 54.2396 18.8426L47.3842 22.5819L42.3917 18.4216C42.5079 18.1071 42.5804 17.7723 42.5804 17.4191C42.5804 17.0262 42.5001 16.6507 42.3579 16.3091L47.9784 11.2498ZM35.8064 27.0963C35.3593 27.0963 34.9412 27.2057 34.5628 27.3876L30.4626 23.2874L37.7012 19.5336C38.2208 20.0194 38.9118 20.3223 39.6773 20.3223C40.2173 20.3223 40.7166 20.1645 41.1501 19.9071L45.5562 23.5787L37.7341 27.8454C37.2202 27.3847 36.5496 27.0963 35.8064 27.0963ZM36.7741 29.9995C36.7741 30.5337 36.3396 30.9672 35.8064 30.9672C35.2731 30.9672 34.8386 30.5337 34.8386 29.9995C34.8386 29.4653 35.2731 29.0318 35.8064 29.0318C36.3396 29.0318 36.7741 29.4653 36.7741 29.9995ZM22.143 19.3419L23.7678 24.5773L15.5248 28.8518C15.1793 28.5295 14.7564 28.2954 14.2861 28.1705L12.9448 17.8855L19.5757 17.5536C19.9966 18.5736 20.9837 19.2955 22.143 19.3419ZM21.2905 16.4513C21.2905 15.9172 21.725 15.4836 22.2582 15.4836C22.7914 15.4836 23.2259 15.9172 23.2259 16.4513C23.2259 16.9855 22.7914 17.4191 22.2582 17.4191C21.725 17.4191 21.2905 16.9855 21.2905 16.4513ZM24.3495 26.4567L26.8036 34.3659L16.446 30.9131C16.4441 30.7969 16.4267 30.6847 16.4112 30.5724L24.3495 26.4567ZM24.3427 19.9052L27.2246 22.7861L25.5127 23.6735L24.3427 19.9052ZM24.8711 17.6949C25.052 17.3165 25.1614 16.8984 25.1614 16.4513C25.1614 16.0391 25.0723 15.6481 24.9175 15.293L29.5123 11.004L36.9193 16.5588C36.8331 16.8336 36.7741 17.1181 36.7741 17.4191C36.7741 17.5546 36.7963 17.6833 36.8138 17.8139L29.0265 21.8513L24.8711 17.6949ZM38.7095 17.4191C38.7095 16.8849 39.1441 16.4513 39.6773 16.4513C40.2105 16.4513 40.645 16.8849 40.645 17.4191C40.645 17.9533 40.2105 18.3868 39.6773 18.3868C39.1441 18.3868 38.7095 17.9533 38.7095 17.4191ZM47.1559 24.9112L54.0896 30.6895L39.0657 29.324L47.1559 24.9112ZM36.7741 1.93545C37.3073 1.93545 37.7418 2.36899 37.7418 2.90318C37.7418 3.43736 37.3073 3.87091 36.7741 3.87091C36.2409 3.87091 35.8064 3.43736 35.8064 2.90318C35.8064 2.36899 36.2409 1.93545 36.7741 1.93545ZM35.4444 5.46862C35.8441 5.67668 36.2922 5.80636 36.7741 5.80636C37.5879 5.80636 38.3215 5.46765 38.8499 4.92669L46.4775 8.44728C46.4697 8.53535 46.4514 8.61954 46.4514 8.70954C46.4514 9.1034 46.5317 9.47791 46.6739 9.82049L41.0534 14.8788C40.6421 14.6543 40.1776 14.5159 39.6773 14.5159C39.0831 14.5159 38.5305 14.6969 38.0699 15.0046L30.9493 9.66372L35.4444 5.46862ZM34.049 3.87091C34.0722 3.93381 34.0886 3.99961 34.1148 4.06058L29.3758 8.48309L23.2259 3.87091H34.049ZM20.3227 1.93545C20.856 1.93545 21.2905 2.36899 21.2905 2.90318C21.2905 3.43736 20.856 3.87091 20.3227 3.87091C19.7895 3.87091 19.355 3.43736 19.355 2.90318C19.355 2.36899 19.7895 1.93545 20.3227 1.93545ZM13.5487 7.74181C13.5487 7.62181 13.5274 7.50665 13.5129 7.39053L18.3128 4.99056C18.8353 5.49282 19.5418 5.80636 20.3227 5.80636C20.9169 5.80636 21.4695 5.62539 21.9301 5.31766L27.9387 9.82436L23.5879 13.8849C23.1882 13.6769 22.7401 13.5482 22.2582 13.5482C20.9479 13.5482 19.8505 14.4259 19.4905 15.6201L12.6932 15.9597L11.9577 10.3169C12.8974 9.83597 13.5487 8.86824 13.5487 7.74181ZM10.6455 6.77408C11.1787 6.77408 11.6132 7.20763 11.6132 7.74181C11.6132 8.276 11.1787 8.70954 10.6455 8.70954C10.1123 8.70954 9.67775 8.276 9.67775 7.74181C9.67775 7.20763 10.1123 6.77408 10.6455 6.77408ZM9.69904 10.4737C9.8113 10.5124 9.92162 10.554 10.0387 10.5792L10.7529 16.0575L5.5862 16.3159C5.52524 16.1678 5.44685 16.0294 5.36266 15.8939L9.69904 10.4737ZM2.90367 16.4513C3.43688 16.4513 3.87139 16.8849 3.87139 17.4191C3.87139 17.9533 3.43688 18.3868 2.90367 18.3868C2.37045 18.3868 1.93594 17.9533 1.93594 17.4191C1.93594 16.8849 2.37045 16.4513 2.90367 16.4513ZM2.90367 29.9995C2.37045 29.9995 1.93594 29.566 1.93594 29.0318C1.93594 28.4976 2.37045 28.0641 2.90367 28.0641C3.43688 28.0641 3.87139 28.4976 3.87139 29.0318C3.87139 29.566 3.43688 29.9995 2.90367 29.9995ZM11.0422 29.5282L5.7604 28.5682C5.58911 27.5144 4.85364 26.657 3.87139 26.3067V20.1432C4.73557 19.8345 5.40524 19.1329 5.67136 18.2494L11.0055 17.9823L12.3545 28.3273C11.799 28.5799 11.3451 29.0028 11.0422 29.5282ZM13.5487 31.935C13.0154 31.935 12.5809 31.5014 12.5809 30.9672C12.5809 30.4331 13.0154 29.9995 13.5487 29.9995C14.0819 29.9995 14.5164 30.4331 14.5164 30.9672C14.5164 31.5014 14.0819 31.935 13.5487 31.935ZM17.4196 41.6122C16.8863 41.6122 16.4518 41.1787 16.4518 40.6445C16.4518 40.1103 16.8863 39.6768 17.4196 39.6768C17.9528 39.6768 18.3873 40.1103 18.3873 40.6445C18.3873 41.1787 17.9528 41.6122 17.4196 41.6122ZM28.6104 42.8345L20.3053 40.4616C20.2076 38.9471 18.9582 37.7413 17.4196 37.7413C17.3809 37.7413 17.3441 37.751 17.3054 37.7529L15.4589 33.1359C15.5935 33.0169 15.7154 32.8872 15.8267 32.7459L27.511 36.641L29.2365 42.1996C28.9974 42.3796 28.7845 42.5916 28.6104 42.8345ZM30.9677 58.0636C30.4345 58.0636 30 57.63 30 57.0959C30 56.5617 30.4345 56.1281 30.9677 56.1281C31.5009 56.1281 31.9355 56.5617 31.9355 57.0959C31.9355 57.63 31.5009 58.0636 30.9677 58.0636ZM30.9677 45.4831C30.4345 45.4831 30 45.0496 30 44.5154C30 43.9812 30.4345 43.5477 30.9677 43.5477C31.5009 43.5477 31.9355 43.9812 31.9355 44.5154C31.9355 45.0496 31.5009 45.4831 30.9677 45.4831ZM31.0006 41.3568L29.7707 37.3949L32.0661 38.1604L31.0006 41.3568ZM32.6787 36.3236L29.0652 35.1188L26.0962 25.5518L28.6607 24.2222L33.1945 28.756C33.0125 29.1344 32.9032 29.5524 32.9032 29.9995C32.9032 30.9266 33.3483 31.7453 34.0277 32.2766L32.6787 36.3236ZM45.4836 58.0636C44.9504 58.0636 44.5159 57.63 44.5159 57.0959C44.5159 56.5617 44.9504 56.1281 45.4836 56.1281C46.0168 56.1281 46.4514 56.5617 46.4514 57.0959C46.4514 57.63 46.0168 58.0636 45.4836 58.0636ZM45.4836 42.58C44.9504 42.58 44.5159 42.1464 44.5159 41.6122C44.5159 41.078 44.9504 40.6445 45.4836 40.6445C46.0168 40.6445 46.4514 41.078 46.4514 41.6122C46.4514 42.1464 46.0168 42.58 45.4836 42.58ZM46.9565 39.1232C46.523 38.8668 46.0236 38.7091 45.4836 38.7091C44.5565 38.7091 43.7378 39.1542 43.2066 39.8335L34.5145 36.9362L35.8606 32.8969C37.0044 32.8756 37.9828 32.1904 38.4357 31.2101L54.2928 32.6511C54.318 32.7479 54.347 32.8427 54.3819 32.9356L46.9565 39.1232ZM48.9839 23.9135L55.1686 20.54C55.4464 20.7897 55.7706 20.9832 56.1296 21.111V29.2099C55.9515 29.2737 55.7831 29.3521 55.6235 29.4469L48.9839 23.9135ZM57.0963 32.9027C56.5631 32.9027 56.1286 32.4692 56.1286 31.935C56.1286 31.4008 56.5631 30.9672 57.0963 30.9672C57.6296 30.9672 58.0641 31.4008 58.0641 31.935C58.0641 32.4692 57.6296 32.9027 57.0963 32.9027ZM57.0963 19.3545C56.5631 19.3545 56.1286 18.921 56.1286 18.3868C56.1286 17.8526 56.5631 17.4191 57.0963 17.4191C57.6296 17.4191 58.0641 17.8526 58.0641 18.3868C58.0641 18.921 57.6296 19.3545 57.0963 19.3545Z" fill="white"/>
<path d="M3.87137 0H1.93591V1.93545H3.87137V0Z" fill="white"/>
<path d="M3.87137 3.87091H1.93591V5.80636H3.87137V3.87091Z" fill="white"/>
<path d="M5.80685 1.93546H3.8714V3.87091H5.80685V1.93546Z" fill="white"/>
<path d="M1.93594 1.93546H0.000488281V3.87091H1.93594V1.93546Z" fill="white"/>
<path d="M52.2577 44.5154H50.3223V46.4509H52.2577V44.5154Z" fill="white"/>
<path d="M52.2577 48.3863H50.3223V50.3218H52.2577V48.3863Z" fill="white"/>
<path d="M54.1931 46.4509H52.2577V48.3863H54.1931V46.4509Z" fill="white"/>
<path d="M50.3222 46.4509H48.3868V48.3863H50.3222V46.4509Z" fill="white"/>
<path d="M58.0641 3.87091H56.1286V5.80636H58.0641V3.87091Z" fill="white"/>
<path d="M58.0641 7.74182H56.1286V9.67727H58.0641V7.74182Z" fill="white"/>
<path d="M59.9995 5.80637H58.0641V7.74182H59.9995V5.80637Z" fill="white"/>
<path d="M56.1286 5.80637H54.1932V7.74182H56.1286V5.80637Z" fill="white"/>
<path d="M13.5487 46.4509H11.6132V48.3863H13.5487V46.4509Z" fill="white"/>
<path d="M13.5487 50.3218H11.6132V52.2572H13.5487V50.3218Z" fill="white"/>
<path d="M15.4841 48.3863H13.5486V50.3218H15.4841V48.3863Z" fill="white"/>
<path d="M11.6132 48.3863H9.67773V50.3218H11.6132V48.3863Z" fill="white"/>
<path d="M7.74228 35.8059H5.80682V37.7413H7.74228V35.8059Z" fill="white"/>
<path d="M7.74228 39.6768H5.80682V41.6122H7.74228V39.6768Z" fill="white"/>
<path d="M9.67776 37.7413H7.74231V39.6768H9.67776V37.7413Z" fill="white"/>
<path d="M5.80685 37.7413H3.8714V39.6768H5.80685V37.7413Z" fill="white"/>
</svg>
