<svg width="38" height="20" viewBox="0 0 38 20" fill="none" xmlns="http://www.w3.org/2000/svg">
<path d="M37.3334 3.33333C37.3334 5.16667 35.8334 6.66667 34 6.66667C33.7 6.66667 33.4167 6.63333 33.15 6.55L27.2167 12.4667C27.3 12.7333 27.3334 13.0333 27.3334 13.3333C27.3334 15.1667 25.8334 16.6667 24 16.6667C22.1667 16.6667 20.6667 15.1667 20.6667 13.3333C20.6667 13.0333 20.7 12.7333 20.7834 12.4667L16.5334 8.21667C16.2667 8.3 15.9667 8.33333 15.6667 8.33333C15.3667 8.33333 15.0667 8.3 14.8 8.21667L7.21669 15.8167C7.30002 16.0833 7.33335 16.3667 7.33335 16.6667C7.33335 18.5 5.83335 20 4.00002 20C2.16669 20 0.666687 18.5 0.666687 16.6667C0.666687 14.8333 2.16669 13.3333 4.00002 13.3333C4.30002 13.3333 4.58335 13.3667 4.85002 13.45L12.45 5.86667C12.3667 5.6 12.3334 5.3 12.3334 5C12.3334 3.16667 13.8334 1.66667 15.6667 1.66667C17.5 1.66667 19 3.16667 19 5C19 5.3 18.9667 5.6 18.8834 5.86667L23.1334 10.1167C23.4 10.0333 23.7 10 24 10C24.3 10 24.6 10.0333 24.8667 10.1167L30.7833 4.18333C30.7 3.91667 30.6667 3.63333 30.6667 3.33333C30.6667 1.5 32.1667 0 34 0C35.8334 0 37.3334 1.5 37.3334 3.33333Z" fill="#B2B2B2"/>
</svg>
