<svg width="36" height="42" viewBox="0 0 36 42" fill="none" xmlns="http://www.w3.org/2000/svg">
<path d="M28 38C27.42 38 26.88 37.88 26.48 37.7C25.06 36.96 24.06 35.94 23.06 32.94C22.04 29.82 20.12 28.36 18.28 26.94C16.7 25.72 15.06 24.46 13.64 21.88C12.58 19.96 12 17.86 12 16C12 10.4 16.4 6 22 6C27.6 6 32 10.4 32 16H36C36 8.14 29.86 2 22 2C14.14 2 8 8.14 8 16C8 18.52 8.76 21.3 10.14 23.8C11.96 27.1 14.1 28.76 15.84 30.1C17.46 31.34 18.62 32.24 19.26 34.2C20.46 37.84 22 39.88 24.72 41.3C25.74 41.76 26.86 42 28 42C32.42 42 36 38.42 36 34H32C32 36.2 30.2 38 28 38ZM9.28 3.28L6.44 0.440002C2.46 4.42 0 9.92 0 16C0 22.08 2.46 27.58 6.44 31.56L9.26 28.74C6.02 25.48 4 20.98 4 16C4 11.02 6.02 6.52 9.28 3.28ZM17 16C17 18.76 19.24 21 22 21C24.76 21 27 18.76 27 16C27 13.24 24.76 11 22 11C19.24 11 17 13.24 17 16Z" fill="white"/>
</svg>
