<svg width="26" height="35" viewBox="0 0 26 35" fill="none" xmlns="http://www.w3.org/2000/svg">
<path d="M8.00002 13.7333V7.5C8.00002 5.2 9.86669 3.33333 12.1667 3.33333C14.4667 3.33333 16.3334 5.2 16.3334 7.5V13.7333C18.35 12.3833 19.6667 10.1 19.6667 7.5C19.6667 3.35 16.3167 0 12.1667 0C8.01669 0 4.66669 3.35 4.66669 7.5C4.66669 10.1 5.98335 12.3833 8.00002 13.7333ZM24.4 21.45L16.8334 17.6833C16.55 17.5667 16.25 17.5 15.9334 17.5H14.6667V7.5C14.6667 6.11667 13.55 5 12.1667 5C10.7834 5 9.66669 6.11667 9.66669 7.5V25.4L3.95002 24.2C3.81669 24.1833 3.70002 24.15 3.55002 24.15C3.03335 24.15 2.56669 24.3667 2.23335 24.7L0.916687 26.0333L9.15002 34.2667C9.60002 34.7167 10.2334 35 10.9167 35H22.2334C23.4834 35 24.45 34.0833 24.6334 32.8667L25.8834 24.0833C25.9 23.9667 25.9167 23.85 25.9167 23.75C25.9167 22.7167 25.2834 21.8167 24.4 21.45Z" fill="#B3B3B3"/>
</svg>
